<?xml version="1.0" encoding="iso-8859-1"?>
<!-- Generator: Adobe Illustrator 19.0.0, SVG Export Plug-In . SVG Version: 6.00 Build 0)  -->
<svg version="1.1" id="Capa_1" xmlns="http://www.w3.org/2000/svg" xmlns:xlink="http://www.w3.org/1999/xlink" x="0px" y="0px"
	 viewBox="0 0 512 512" style="enable-background:new 0 0 512 512;" xml:space="preserve">
<circle style="fill:#25D9F8;" cx="256" cy="256" r="256"/>
<path style="fill:#00C0F1;" d="M511.6,270.227L385,143.626L350.6,171l-17.2-27.374l-17.2-17.2h-17.4l-17-17.2L127,402.773
	l108.4,108.4c6.796,0.541,13.665,0.827,20.6,0.827C392.61,512,504.217,404.993,511.6,270.227z"/>
<path style="fill:#5A5A5A;" d="M333.4,143.627v207.547H178.6V143.627H127v259.147h258V143.627H333.4z"/>
<polygon style="fill:#444444;" points="385,143.627 385,402.773 256,402.773 256,351.173 333.4,351.173 333.4,143.627 "/>
<path style="fill:#EDE9E8;" d="M161.4,143.627v224.747h189.2V143.627H161.4z"/>
<path style="fill:#FFD400;" d="M281.8,126.427v-17.2h-51.6v17.2h-34.4v51.6h120.4v-51.6C316.2,126.427,281.8,126.427,281.8,126.427z
	"/>
<rect x="256" y="143.63" style="fill:#DFD7D5;" width="94.6" height="224.75"/>
<polygon style="fill:#FF9F00;" points="316.2,126.427 316.2,178.027 256,178.027 256,109.227 281.8,109.227 281.8,126.427 "/>
<g>
</g>
<g>
</g>
<g>
</g>
<g>
</g>
<g>
</g>
<g>
</g>
<g>
</g>
<g>
</g>
<g>
</g>
<g>
</g>
<g>
</g>
<g>
</g>
<g>
</g>
<g>
</g>
<g>
</g>
</svg>
