<?xml version="1.0" encoding="iso-8859-1"?>
<!-- Generator: Adobe Illustrator 19.0.0, SVG Export Plug-In . SVG Version: 6.00 Build 0)  -->
<svg version="1.1" id="Capa_1" xmlns="http://www.w3.org/2000/svg" xmlns:xlink="http://www.w3.org/1999/xlink" x="0px" y="0px"
	 viewBox="0 0 512 512" style="enable-background:new 0 0 512 512;" xml:space="preserve">
<circle style="fill:#00ABE9;" cx="256" cy="256" r="256"/>
<path style="fill:#0080AF;" d="M512,256c0-7.37-0.329-14.662-0.94-21.874L400.934,124L111.066,327.814l51.52,51v8.785
	L285.307,510.32C412.887,495.777,512,387.472,512,256z"/>
<path style="fill:#FFD400;" d="M111.066,124v203.814h51.52v59.785l77.449-59.785h160.9V124H111.066z"/>
<rect x="256" y="124" style="fill:#FDBF00;" width="144.93" height="203.81"/>
<g>
	<rect x="162.59" y="191.94" style="fill:#5A5A5A;" width="187.4" height="16.985"/>
	<rect x="162.59" y="242.89" style="fill:#5A5A5A;" width="153.43" height="16.985"/>
</g>
<g>
	<rect x="333" y="242.89" style="fill:#444444;" width="16.985" height="16.985"/>
	<rect x="256" y="242.89" style="fill:#444444;" width="60.01" height="16.985"/>
	<rect x="256" y="191.94" style="fill:#444444;" width="93.98" height="16.985"/>
</g>
<g>
</g>
<g>
</g>
<g>
</g>
<g>
</g>
<g>
</g>
<g>
</g>
<g>
</g>
<g>
</g>
<g>
</g>
<g>
</g>
<g>
</g>
<g>
</g>
<g>
</g>
<g>
</g>
<g>
</g>
</svg>
