<?xml version="1.0" encoding="iso-8859-1"?>
<!-- Generator: Adobe Illustrator 19.0.0, SVG Export Plug-In . SVG Version: 6.00 Build 0)  -->
<svg version="1.1" id="Capa_1" xmlns="http://www.w3.org/2000/svg" xmlns:xlink="http://www.w3.org/1999/xlink" x="0px" y="0px"
	 viewBox="0 0 512 512" style="enable-background:new 0 0 512 512;" xml:space="preserve">
<circle style="fill:#D3D3D8;" cx="256" cy="256" r="256"/>
<path style="fill:#9E9EA2;" d="M512,256c0-1.053-0.027-2.1-0.04-3.15L362.741,103.631L188,135l-30,76l98.185,240.859l54.253,54.321
	C425.668,481.222,512,378.702,512,256z"/>
<g>
	<path style="fill:#FF3636;" d="M398.022,161.981c-13.781-44.559-50.072-80.85-94.631-94.631C287.772,62.526,271.694,60,256.075,60
		c-31.927,0-62.704,9.876-88.429,29.171c-38.129,28.021-60.868,72.811-60.868,120.126c0,32.615,10.336,63.624,29.859,89.579
		L256.075,452l119.438-153.124C404.683,259.828,412.952,209.987,398.022,161.981z M256.075,289.688
		c-44.33,0-80.391-36.061-80.391-80.391s36.061-80.391,80.391-80.391s80.391,36.061,80.391,80.391S300.405,289.688,256.075,289.688z
		"/>
</g>
<path style="fill:#F40000;" d="M375.513,298.876L256.075,452V289.688c44.33,0,80.391-36.061,80.391-80.391
	s-36.061-80.391-80.391-80.391V60c15.619,0,31.697,2.526,47.316,7.35c44.559,13.781,80.85,50.072,94.631,94.631
	C412.952,209.987,404.683,259.828,375.513,298.876z"/>
<g>
</g>
<g>
</g>
<g>
</g>
<g>
</g>
<g>
</g>
<g>
</g>
<g>
</g>
<g>
</g>
<g>
</g>
<g>
</g>
<g>
</g>
<g>
</g>
<g>
</g>
<g>
</g>
<g>
</g>
</svg>
